HIERARCHY
ROOT hips
{
  OFFSET 0 10.680822821525009 1.3929502295107734
  CHANNELS 6 Xposition Yposition Zposition Yrotation Xrotation Zrotation
  JOINT spine
  {
    OFFSET -7.042017322922631e-31 0.6058489940359625 0
    CHANNELS 3 Yrotation Xrotation Zrotation
    JOINT chest
    {
      OFFSET 0 1.2699794144455032 0
      CHANNELS 3 Yrotation Xrotation Zrotation
      JOINT upperChest
      {
        OFFSET 0 1.217799211677689 0
        CHANNELS 3 Yrotation Xrotation Zrotation
        JOINT neck
        {
          OFFSET 0 1.5248826104153006 0
          CHANNELS 3 Yrotation Xrotation Zrotation
          JOINT head
          {
            OFFSET 0 0.8197772727844447 0
            CHANNELS 3 Yrotation Xrotation Zrotation
            JOINT leftEye
            {
              OFFSET 0.2793952361220866 0.6769952096623495 0.1830357412467788
              CHANNELS 3 Yrotation Xrotation Zrotation
              End Site
              {
                OFFSET 0.2793952361220866 0.6769952096623495 0.1830357412467788
              }
            }
            JOINT rightEye
            {
              OFFSET -0.27939522230689573 0.676995205357064 0.18303631459760622
              CHANNELS 3 Yrotation Xrotation Zrotation
              End Site
              {
                OFFSET -0.27939522230689573 0.676995205357064 0.18303631459760622
              }
            }
          }
        }
        JOINT leftShoulder
        {
          OFFSET 0.41486978509200423 1.1670505408695453 0
          CHANNELS 3 Yrotation Xrotation Zrotation
          JOINT leftUpperArm
          {
            OFFSET 0.9737926108153417 0 0
            CHANNELS 3 Yrotation Xrotation Zrotation
            JOINT leftLowerArm
            {
              OFFSET 2.5269332222665284 0 0
              CHANNELS 3 Yrotation Xrotation Zrotation
              JOINT leftHand
              {
                OFFSET 2.4263782738425914 0 0
                CHANNELS 3 Yrotation Xrotation Zrotation
                JOINT leftIndexProximal
                {
                  OFFSET 0.724320348022514 0.08170607082582437 0.20360061616140124
                  CHANNELS 3 Yrotation Xrotation Zrotation
                  JOINT leftIndexIntermediate
                  {
                    OFFSET 0.36548960630744587 -0.010566596513783999 -0.01414783573280308
                    CHANNELS 3 Yrotation Xrotation Zrotation
                    JOINT leftIndexDistal
                    {
                      OFFSET 0.22502819650693362 -0.007863819831430696 -0.007567681939621526
                      CHANNELS 3 Yrotation Xrotation Zrotation
                      End Site
                      {
                        OFFSET 0.22502819650693362 -0.007863819831430696 -0.007567681939621526
                      }
                    }
                  }
                }
                JOINT leftLittleProximal
                {
                  OFFSET 0.6720322998298205 0.08170601055037707 -0.3230036039466837
                  CHANNELS 3 Yrotation Xrotation Zrotation
                  JOINT leftLittleIntermediate
                  {
                    OFFSET 0.34583592281688713 5.476543019078406e-8 1.3869203337180114e-7
                    CHANNELS 3 Yrotation Xrotation Zrotation
                    JOINT leftLittleDistal
                    {
                      OFFSET 0.19925728062053938 0.003098047439490381 0.0038303983709246925
                      CHANNELS 3 Yrotation Xrotation Zrotation
                      End Site
                      {
                        OFFSET 0.19925728062053938 0.003098047439490381 0.0038303983709246925
                      }
                    }
                  }
                }
                JOINT leftMiddleProximal
                {
                  OFFSET 0.7300436596551069 0.0817073395107144 0.022661722987926763
                  CHANNELS 3 Yrotation Xrotation Zrotation
                  JOINT leftMiddleIntermediate
                  {
                    OFFSET 0.40758254347686607 -0.0000012383587111308714 2.408460318820138e-7
                    CHANNELS 3 Yrotation Xrotation Zrotation
                    JOINT leftMiddleDistal
                    {
                      OFFSET 0.2514490105498507 0.0000013869132886590307 9.738618134136345e-8
                      CHANNELS 3 Yrotation Xrotation Zrotation
                      End Site
                      {
                        OFFSET 0.2514490105498507 0.0000013869132886590307 9.738618134136345e-8
                      }
                    }
                  }
                }
                JOINT leftRingProximal
                {
                  OFFSET 0.7217261161191838 0.08170601902187746 -0.15043395722184966
                  CHANNELS 3 Yrotation Xrotation Zrotation
                  JOINT leftRingIntermediate
                  {
                    OFFSET 0.37808807487521556 0.0000013754022405443322 2.2046919317952884e-7
                    CHANNELS 3 Yrotation Xrotation Zrotation
                    JOINT leftRingDistal
                    {
                      OFFSET 0.21812105442344254 -0.002713483731960231 -0.004991354517454624
                      CHANNELS 3 Yrotation Xrotation Zrotation
                      End Site
                      {
                        OFFSET 0.21812105442344254 -0.002713483731960231 -0.004991354517454624
                      }
                    }
                  }
                }
                JOINT leftThumbProximal
                {
                  OFFSET 0.10793587079521427 -0.1652791240518252 -0.07775251827190094
                  CHANNELS 3 Yrotation Xrotation Zrotation
                  JOINT leftThumbIntermediate
                  {
                    OFFSET 0.40355819082296684 -0.017484006740276614 0.3177776014416309
                    CHANNELS 3 Yrotation Xrotation Zrotation
                    JOINT leftThumbDistal
                    {
                      OFFSET 0.2318764658022603 -0.018510186824293617 0.21396001800186287
                      CHANNELS 3 Yrotation Xrotation Zrotation
                      End Site
                      {
                        OFFSET 0.2318764658022603 -0.018510186824293617 0.21396001800186287
                      }
                    }
                  }
                }
              }
            }
          }
        }
        JOINT rightShoulder
        {
          OFFSET -0.4148697850920044 1.1670505408695453 0
          CHANNELS 3 Yrotation Xrotation Zrotation
          JOINT rightUpperArm
          {
            OFFSET -0.9737926108153414 0 0
            CHANNELS 3 Yrotation Xrotation Zrotation
            JOINT rightLowerArm
            {
              OFFSET -2.5269332222665293 0 0
              CHANNELS 3 Yrotation Xrotation Zrotation
              JOINT rightHand
              {
                OFFSET -2.42637827384259 0 0
                CHANNELS 3 Yrotation Xrotation Zrotation
                JOINT rightIndexProximal
                {
                  OFFSET -0.724320348022514 0.08170607082582437 0.20360061616140124
                  CHANNELS 3 Yrotation Xrotation Zrotation
                  JOINT rightIndexIntermediate
                  {
                    OFFSET -0.36548960630744587 -0.010566596513783999 -0.01414783573280308
                    CHANNELS 3 Yrotation Xrotation Zrotation
                    JOINT rightIndexDistal
                    {
                      OFFSET -0.22502819650693362 -0.007863819831430696 -0.007567681939621526
                      CHANNELS 3 Yrotation Xrotation Zrotation
                      End Site
                      {
                        OFFSET -0.22502819650693362 -0.007863819831430696 -0.007567681939621526
                      }
                    }
                  }
                }
                JOINT rightLittleProximal
                {
                  OFFSET -0.6720322998298205 0.08170601055037707 -0.3230036039466837
                  CHANNELS 3 Yrotation Xrotation Zrotation
                  JOINT rightLittleIntermediate
                  {
                    OFFSET -0.34583592281688713 5.476543019078406e-8 1.3869203337180114e-7
                    CHANNELS 3 Yrotation Xrotation Zrotation
                    JOINT rightLittleDistal
                    {
                      OFFSET -0.19925728062053938 0.003098047439490381 0.0038303983709246925
                      CHANNELS 3 Yrotation Xrotation Zrotation
                      End Site
                      {
                        OFFSET -0.19925728062053938 0.003098047439490381 0.0038303983709246925
                      }
                    }
                  }
                }
                JOINT rightMiddleProximal
                {
                  OFFSET -0.7300436596551069 0.0817073395107144 0.022661722987926763
                  CHANNELS 3 Yrotation Xrotation Zrotation
                  JOINT rightMiddleIntermediate
                  {
                    OFFSET -0.40758254347686607 -0.0000012383587111308714 2.408460318820138e-7
                    CHANNELS 3 Yrotation Xrotation Zrotation
                    JOINT rightMiddleDistal
                    {
                      OFFSET -0.2514490105498507 0.0000013869132886590307 9.738618134136345e-8
                      CHANNELS 3 Yrotation Xrotation Zrotation
                      End Site
                      {
                        OFFSET -0.2514490105498507 0.0000013869132886590307 9.738618134136345e-8
                      }
                    }
                  }
                }
                JOINT rightRingProximal
                {
                  OFFSET -0.7217261161191838 0.08170601902187746 -0.15043395722184966
                  CHANNELS 3 Yrotation Xrotation Zrotation
                  JOINT rightRingIntermediate
                  {
                    OFFSET -0.37808807487521556 0.0000013754022405443322 2.2046919317952884e-7
                    CHANNELS 3 Yrotation Xrotation Zrotation
                    JOINT rightRingDistal
                    {
                      OFFSET -0.21812105442344254 -0.002713483731960231 -0.004991354517454624
                      CHANNELS 3 Yrotation Xrotation Zrotation
                      End Site
                      {
                        OFFSET -0.21812105442344254 -0.002713483731960231 -0.004991354517454624
                      }
                    }
                  }
                }
                JOINT rightThumbProximal
                {
                  OFFSET -0.10793587079521427 -0.1652791240518252 -0.07775251827190094
                  CHANNELS 3 Yrotation Xrotation Zrotation
                  JOINT rightThumbIntermediate
                  {
                    OFFSET -0.40355819082296684 -0.017484006740276614 0.3177776014416309
                    CHANNELS 3 Yrotation Xrotation Zrotation
                    JOINT rightThumbDistal
                    {
                      OFFSET -0.2318764658022603 -0.018510186824293617 0.21396001800186287
                      CHANNELS 3 Yrotation Xrotation Zrotation
                      End Site
                      {
                        OFFSET -0.2318764658022603 -0.018510186824293617 0.21396001800186287
                      }
                    }
                  }
                }
              }
            }
          }
        }
      }
    }
  }
  JOINT leftUpperLeg
  {
    OFFSET 0.8486251390888677 -0.4421577294694363 0
    CHANNELS 3 Yrotation Xrotation Zrotation
    JOINT leftLowerLeg
    {
      OFFSET 0 -4.10147812638609 0
      CHANNELS 3 Yrotation Xrotation Zrotation
      JOINT leftFoot
      {
        OFFSET -0.0002543926476658853 -4.77292286812444 0.007402811231737388
        CHANNELS 3 Yrotation Xrotation Zrotation
        JOINT leftToes
        {
          OFFSET 0 -0.7027875951174846 1.2062924140498823
          CHANNELS 3 Yrotation Xrotation Zrotation
          End Site
          {
            OFFSET 0 -0.7027875951174846 1.2062924140498823
          }
        }
      }
    }
  }
  JOINT rightUpperLeg
  {
    OFFSET -0.8486251390888677 -0.4421577294694363 0
    CHANNELS 3 Yrotation Xrotation Zrotation
    JOINT rightLowerLeg
    {
      OFFSET 0 -4.10147812638609 0
      CHANNELS 3 Yrotation Xrotation Zrotation
      JOINT rightFoot
      {
        OFFSET 0.0002543926476658853 -4.77292286812444 0.007402811231737388
        CHANNELS 3 Yrotation Xrotation Zrotation
        JOINT rightToes
        {
          OFFSET 0 -0.7027875951174846 1.2062924140498823
          CHANNELS 3 Yrotation Xrotation Zrotation
          End Site
          {
            OFFSET 0 -0.7027875951174846 1.2062924140498823
          }
        }
      }
    }
  }
}
MOTION
Frames: 4
Frame Time: 0.03333333333333333
-0.41125380992889404 -1.2630858143838957 0.07636982947587967 -40.70167510398848 -5.781609952028556 -3.015795983616205 5.096337451451095 14.671185180725056 1.5046778018056521 1.2825641941200003 2.084486055258165 -1.9685991184981655 0 0 0 0.7833895637385834 8.723361697577275 -5.489721049542078 5.271051541268553 3.734960119487215 -18.92818545234619 0 0 0 0 0 0 -1.9140006038293995 1.8225065933924116 -4.680350464340661 -48.10495035646849 -2.93910942659044 -28.517434020547974 -42.76339408989108 -5.321761176519662 2.6626278807121193 -15.675733891618194 20.056556391483095 -1.140347694964873 6.1740509975971225 6.154499835003667 -89.56387787525533 5.729043441454396 3.87231301204925 -68.08769095376574 2.0971350549561434 0.36759068300381165 -19.883131047516088 6.650833744260573 9.445503000972966 -82.42911134895246 1.9783400762401975 5.120950553386695 -80.30351237599939 3.099763657986234 0.835657541440812 -30.170107134391262 6.166920208153148 5.826541319825868 -86.75534497056273 6.131236953079579 5.4299881585928516 -83.04782574172573 3.3568611647508177 0.9936165038596575 -32.970422262606164 6.157346255144682 6.674958228606564 -94.73151959196761 5.978690202451831 4.628709664806413 -75.47561410982904 3.9537254837339124 1.433760980571406 -39.85354895366092 4.781145314569404 -15.49300088806805 0.23655146627013232 38.29367708149217 7.113668751821745 12.733441012377273 36.459026090924276 9.046183308800757 1.9989636404531992 18.10433911305636 5.878231387871452 6.053230543119252 63.6848146137437 -4.554701389705368 31.828953464585627 78.02669341227801 -7.3445042785052905 -7.142457605640076 -11.913491135344604 14.563307742343707 0.32409731007442494 10.830530081337896 0.8748224213262366 -11.228632779195346 -1.998902310558622 0.32919713233691167 18.702474539572922 -0.8917433975550981 0.06412161586962056 8.225807137961421 -8.16108167100366 12.780619114411246 68.09279050116855 -5.95404579968165 4.365733200289936 72.47759986814432 -2.881978247301333 0.7061627481354057 27.530102028313202 -7.244110296614956 6.480329283513285 51.72736608260659 -6.031026430915999 4.628856137826917 74.99147272996265 -2.833924398129461 0.752177084449187 27.421664368679533 -8.026683792025393 10.684987287372913 63.6826184231326 -5.465955284473995 3.2293301306380817 61.12448075328142 -2.629177407315977 0.5264997351889221 24.67154881214612 -12.874247188773404 12.613285601070675 -13.978417872113518 -21.046963710558085 -2.2058689006447096 -2.707518525557687 -22.86257257246838 9.510739941451957 -11.159299902438368 10.488196662602942 -33.100482849270804 19.256342855785977 -1.2217700725107368 53.87634196285796 -0.6766707991207758 1.067695573338672 -11.858176424349235 -7.820538707215561 -0.0017809943751387308 -2.9448314885636986 -0.1549118200542428 -13.448222881361492 -12.107484391441151 -12.914609615330367 7.347275085789302 46.980594400556335 2.44395993148003 -1.6147778044365066 -27.610117564331553 14.392669388075976 0.004317037880233542 -0.9805044369203839 0.5116203409900552
-0.4171766936779022 -1.2634243687662199 0.07966972142457962 -40.763595070154594 -5.79997528136774 -3.0482671823270624 5.060377612151069 14.678833483463466 1.476575740330815 1.2735234356514884 2.084529840131508 -1.9029865189797668 0 0 0 0.4632801848189876 8.569487466580794 -5.662800446813327 3.67289960407627 3.095987841318931 -19.414457536482118 0 0 0 0 0 0 -1.9378654123828982 1.83099314755631 -4.793087597051264 -48.12167005066946 -2.9438346726068927 -28.57242577136614 -42.35869893300791 -5.2832439817640635 2.6200324158532746 -15.459224601029264 20.49170057224979 -1.568247845875686 6.174050768406192 6.156289416683797 -89.58051548904093 5.727568178180524 3.8686419501198963 -68.05104525039216 2.1008854225618077 0.368960324307779 -19.920210126822017 6.6483550926162795 9.450463263523575 -82.47233309744468 1.9781169326456858 5.11967290529845 -80.29154314914203 3.101085594399713 0.8364261796317033 -30.184371846464163 6.1671075678724545 5.829770334176559 -86.7854763137763 6.130785636211008 5.4262532256403215 -83.01281080249932 3.359269936489667 0.9951814932028167 -32.99702089728642 6.157427433737732 6.674041035831127 -94.72291338300897 5.978269407079479 4.627106600952249 -75.46010334437123 3.954227822899181 1.4341598177669677 -39.859402625006524 4.81197797669413 -15.517261859508954 0.23252247789427286 38.275781330073116 7.1461197587886955 12.712533378242483 36.45628604220984 9.052605934932664 1.9904734460125832 17.89548718940632 5.80694406805109 6.263111712404222 63.236455947636685 -5.117103901739011 32.211978308023305 78.21895495489034 -7.347613630547894 -7.169495136768404 -12.11347062511556 14.735025739760987 1.3009661998830018 10.69219240069945 0.6086160383696338 -9.786868637906936 -1.9888558677896633 0.32580487414097425 18.605130528290122 -0.879910891933543 0.06242785465457064 8.115712817507742 -8.282484909628074 13.032247664160408 67.7448037329152 -5.951171428653807 4.356620528577519 72.38980183169429 -2.8757769988981146 0.702946126174638 27.465937792273014 -7.275935585171871 6.563833463559789 51.90666897827185 -6.0269029242483185 4.6135545819700345 74.84595254988176 -2.817564639736933 0.7424651167053673 27.243835118783448 -8.095662719742045 10.870927233431269 63.59016738592703 -5.460712872933827 3.2198495451870404 61.02567976933008 -2.6123231614336135 0.5140812989108854 24.47895039114023 -13.017793030572536 12.491427726461588 -14.081326398236504 -21.031492723531443 -2.164419852028191 -2.667056043420797 -22.84247715192078 9.530875214138941 -11.147786693862576 10.506117023312735 -33.06933843382931 19.33721599156016 -1.2367691021050047 53.92149892081037 -0.6806590768342752 1.0673171399307748 -11.905479832166776 -7.801645983539614 -0.0016261639966677227 -2.971582567275274 -0.13869093152994483 -13.443477169830784 -12.06190825566103 -12.878335070285198 7.482616054775706 46.9857905326307 2.5339063693095616 -1.634048481639006 -27.60259292884012 14.374737370748822 0.004598422609174829 -1.011448481934258 0.5603345443997837
-0.4282223582267761 -1.2655415257486418 0.08525235205888748 -40.79929534899758 -5.829854009878427 -3.123853703226183 4.90780542794512 14.724026242038546 1.4453647248377859 1.2335557242596504 2.089205858035081 -1.7873630307395585 0 0 0 0.06635951606433113 8.324663655111832 -5.924817630004669 1.8170711205622305 1.8147457237446796 -20.153114637908562 0 0 0 0 0 0 -1.9011394985882648 1.8340268761805452 -5.023883589040392 -47.9951977372468 -2.8408232835325693 -28.745337100597837 -42.04459104595152 -5.253146829302056 2.58715396016083 -15.05491731663607 21.648142541834865 -2.9793916709531465 6.174052442534835 6.154879390691271 -89.56739105496605 5.724944073186284 3.8622142071394556 -67.98660306385152 2.1079759906743667 0.3715251138899208 -19.990396141570482 6.646637355734337 9.453856120811206 -82.50203519351682 1.9781812007490627 5.120054356489892 -80.29539021230326 3.1055347971362757 0.8390131234797966 -30.231992027905378 6.167270915419611 5.8323956116304485 -86.81006156642326 6.130203769682002 5.421418858818583 -82.96750219229217 3.3637191117018195 0.9980771844190425 -33.04635252859629 6.157373199489547 6.674482010212548 -94.72699875254611 5.9775145198266335 4.624228975530659 -75.4327980690109 3.9560722272217257 1.4357094760100304 -39.881770200382036 4.802365778468745 -15.628811206550441 0.2201503708238973 38.26414705867337 7.1769101206514945 12.693633670232005 36.45041933201085 9.069885089296998 1.969572209676772 17.3166134955355 5.644130783079536 6.586806050411906 61.890211460996326 -6.765917167280678 33.12532955806003 79.4933901328811 -7.366177225190316 -7.348842010497695 -12.867838950589666 15.45471825473735 3.2679779440205476 10.646794328475773 0.26927743738259285 -7.919811604692944 -1.992596665589044 0.3270733355626401 18.641009352798523 -0.8714821283903005 0.06123264422503063 8.037671977963571 -8.64451343882959 13.71579130687734 66.53218465526218 -5.949146564654765 4.350254781757135 72.32874784424745 -2.874976372401626 0.7025076804305017 27.4575772862849 -7.297185612136142 6.61472929189168 51.939086378565904 -6.025017168591986 4.606549330762341 74.77970558223024 -2.7904962087147607 0.725773965908976 26.945457341047156 -8.291958979373591 11.202104808084924 62.8409517331001 -5.456284534776145 3.2118836726610365 60.942150725383854 -2.5862146995303346 0.49364116734656643 24.173797747052777 -13.4435700718066 12.152891016342753 -14.416982289554547 -21.004870511809262 -2.090632609062761 -2.593899708062467 -22.851142710382614 9.512374335268845 -11.157919595655757 10.492198738132247 -33.03777321605258 19.470399892099028 -1.3717422505505437 54.02668936333326 -0.7368367657830847 1.0573217222961269 -12.097016708731402 -7.663434293648904 -0.0008377000579184983 -2.9561953390926905 -0.06680574575491414 -13.406059293135897 -11.959278294276436 -12.765770295079628 7.62584617829008 47.037088150073636 2.602154600094986 -1.7373164438422601 -27.609387237755662 14.407507888092203 0.004872145324365519 -1.0603880641448271 0.6765246018762806
-0.4463759660720825 -1.2683758458170011 0.09326010942459106 -40.87318060532879 -5.90442906089659 -3.239503362086684 4.643029656654145 14.766978635962463 1.4941769559310618 1.163880710976765 2.0020320867224206 -1.7700063848832566 0 0 0 0.24021452845272973 8.310023695198884 -5.942949924204982 3.1300941328127108 1.010082231509415 -20.63345325773334 0 0 0 0 0 0 -1.6567574715440025 1.8041713735398175 -5.285643036959653 -47.747052888756826 -2.3424673915501315 -29.193756448709482 -42.180852902306434 -5.2662086412520805 2.6014143450969245 -14.916693109861498 20.288896878096637 -3.0439850056279294 6.17404364196028 6.153633813595737 -89.55561320875027 5.721227971738973 3.8530559447792467 -67.89523126642788 2.1188049908383757 0.37547123280565037 -20.097366368042085 6.64702750342534 9.453082338679238 -82.49564691245479 1.978373103717687 5.121121563841142 -80.30517211957199 3.11059688184935 0.8419796123865985 -30.286570806494687 6.167326832858223 5.8333211986507685 -86.81835525929635 6.129418628360491 5.415238952917299 -82.90960699816718 3.3711286629348627 1.0029073981616319 -33.128432078267764 6.157234537559004 6.676465970042719 -94.74549233217334 5.977310939783421 4.623392971646607 -75.42453745181126 3.9584899724282634 1.4377297126793365 -39.91119566632542 4.750413990948386 -15.639379178346472 0.19492670982880406 38.26207429072925 7.1939882354911076 12.6839012441232 36.41432701797892 9.120470265943867 1.905176892976366 16.65808840373417 5.4785216701227935 6.807165800795331 60.737414411506705 -8.226738066307348 34.135489638123765 81.46003337275616 -7.387075542954017 -7.626307667423413 -12.211509837237204 15.539352793167348 0.22144154756378032 11.173150253682929 0.2542621769566815 -7.771909340705129 -1.997188817991722 0.3286396623208669 18.685767824955562 -0.8657274862878852 0.06040505028097185 7.984252507139593 -9.354562218815209 14.877836714344038 64.37709286653111 -5.951921100472888 4.358988485403168 72.41257805248046 -2.88692020965934 0.7087308282153983 27.58129619696541 -7.225767241072762 6.381400297327953 50.98952609339707 -6.0319679559959125 4.632132515947841 75.02254356037048 -2.7580373439738035 0.7055395528053037 26.58635677545728 -8.557802813675494 11.223068083764215 60.81346054934287 -5.4613928426901035 3.221111494583069 61.03903977379099 -2.5615517744271608 0.47822183422837555 23.90561819728364 -13.915584245479277 11.544327685322422 -14.78876007482663 -21.010888491291077 -2.092696701467879 -2.5899100712280387 -22.954896104335322 9.38520485824562 -11.22976562754265 10.467586706399254 -32.96846068209789 19.684050966298443 -1.2611838033899192 54.185629567458314 -0.5505427887001374 1.0672265544152248 -12.225159745604506 -7.6871537624411665 -0.0007398465488116594 -2.993214901560169 -0.061234194427797276 -13.33659693700488 -11.772687601573455 -12.562817959362668 7.728337251822196 47.130127651410476 2.5917633419691484 -1.9001465956901085 -27.63767119899939 14.438384403913188 0.004906681433556548 -1.155240312902083 0.7766368976190162
